<svg width="182" height="158" viewBox="0 0 182 158" fill="none" xmlns="http://www.w3.org/2000/svg">
<g opacity="0.75">
<path d="M168.099 79.0765C168.099 96.8879 162.109 113.625 152.127 126.83C146.598 134.046 139.993 140.342 132.314 145.255C120.028 153.393 105.13 158 89.3109 158C45.8467 158.153 10.5225 122.837 10.5225 79.0765C10.5225 35.4693 45.6931 0 89.3109 0C105.13 0 119.874 4.6064 132.314 12.7444C139.993 17.6579 146.598 23.9533 152.127 31.17C162.109 44.5285 168.099 61.1116 168.099 79.0765Z" fill="#EAEEF9"/>
<path d="M48.3041 85.8327H47.6898C47.229 85.8327 46.9219 85.5256 46.9219 85.065C46.9219 84.6043 47.229 84.2972 47.6898 84.2972H48.3041C48.7649 84.2972 49.072 84.6043 49.072 85.065C49.072 85.5256 48.7649 85.8327 48.3041 85.8327Z" fill="#2D5887"/>
<path d="M48.3041 89.2105H47.6898C47.229 89.2105 46.9219 88.9034 46.9219 88.4428C46.9219 87.9821 47.229 87.675 47.6898 87.675H48.3041C48.7649 87.675 49.072 87.9821 49.072 88.4428C49.072 88.9034 48.7649 89.2105 48.3041 89.2105Z" fill="#2D5887"/>
<path d="M48.3041 92.5883H47.6898C47.229 92.5883 46.9219 92.2812 46.9219 91.8206C46.9219 91.3599 47.229 91.0529 47.6898 91.0529H48.3041C48.7649 91.0529 49.072 91.3599 49.072 91.8206C49.072 92.2812 48.7649 92.5883 48.3041 92.5883Z" fill="#2D5887"/>
<path d="M48.3041 95.9669H47.6898C47.229 95.9669 46.9219 95.6598 46.9219 95.1991C46.9219 94.7385 47.229 94.4314 47.6898 94.4314H48.3041C48.7649 94.4314 49.072 94.7385 49.072 95.1991C49.072 95.6598 48.7649 95.9669 48.3041 95.9669Z" fill="#2D5887"/>
<path d="M81.4778 85.679H70.1126C69.6519 85.679 69.3447 85.3719 69.3447 84.9113C69.3447 84.4506 69.6519 84.1436 70.1126 84.1436H81.4778C81.9386 84.1436 82.2458 84.4506 82.2458 84.9113C82.2458 85.3719 81.9386 85.679 81.4778 85.679Z" fill="white"/>
<path d="M106.973 95.8132H70.1126C69.6519 95.8132 69.3447 95.5061 69.3447 95.0454C69.3447 94.5848 69.6519 94.2777 70.1126 94.2777H106.973C107.433 94.2777 107.741 94.5848 107.741 95.0454C107.741 95.5061 107.433 95.8132 106.973 95.8132Z" fill="url(#paint0_linear_1657_14724)"/>
<path d="M81.4782 88.9035H65.0448C64.584 88.9035 64.2769 88.5964 64.2769 88.1358C64.2769 87.6751 64.584 87.368 65.0448 87.368H81.4782C81.939 87.368 82.2461 87.6751 82.2461 88.1358C82.2461 88.5964 81.939 88.9035 81.4782 88.9035Z" fill="#2D5887"/>
<path d="M94.5321 92.4349H65.1976C64.7369 92.4349 64.4297 92.1278 64.4297 91.6671C64.4297 91.2065 64.7369 90.8994 65.1976 90.8994H94.5321C94.9928 90.8994 95.3 91.2065 95.3 91.6671C95.1464 92.1278 94.8392 92.4349 94.5321 92.4349Z" fill="#2D5887"/>
<path d="M107.126 92.4349H96.8363C96.3755 92.4349 96.0684 92.1278 96.0684 91.6671C96.0684 91.2065 96.3755 90.8994 96.8363 90.8994H107.126C107.587 90.8994 107.894 91.2065 107.894 91.6671C107.894 92.1278 107.587 92.4349 107.126 92.4349Z" fill="white"/>
<path d="M113.884 92.4349H109.737C109.276 92.4349 108.969 92.1278 108.969 91.6671C108.969 91.2065 109.276 90.8994 109.737 90.8994H113.884C114.345 90.8994 114.652 91.2065 114.652 91.6671C114.652 92.1278 114.345 92.4349 113.884 92.4349Z" fill="url(#paint1_linear_1657_14724)"/>
<path d="M1 139.574H181" stroke="#D6DEE8" stroke-width="2" stroke-miterlimit="10" stroke-linecap="round" stroke-linejoin="round"/>
<path d="M121.103 83.99V138.653H43.2363C40.1646 138.653 37.8608 136.196 37.8608 133.278V83.99H121.103Z" fill="white"/>
<path d="M150.591 83.99V133.278C150.591 136.349 148.134 138.653 145.215 138.653H120.949V83.99H150.591Z" fill="#DAE1ED"/>
<path opacity="0.3" d="M150.591 83.99V133.278C150.591 136.349 148.134 138.653 145.215 138.653H120.949V83.99H150.591Z" fill="url(#paint2_linear_1657_14724)"/>
<path d="M68.2695 84.4504L84.5494 58.9617H168.099L151.358 84.4504H68.2695Z" fill="#C5CDDB"/>
<path opacity="0.2" d="M68.2695 84.4504L84.5494 58.9617H168.099L151.358 84.4504H68.2695Z" fill="url(#paint3_linear_1657_14724)"/>
<path opacity="0.3" d="M150.591 83.9901V113.625H129.089C127.093 113.625 125.711 112.243 125.403 110.247L121.103 83.8365L150.591 83.9901Z" fill="url(#paint4_linear_1657_14724)"/>
<path d="M150.591 83.99H120.949L136 107.176C137.075 108.711 138.765 109.632 140.454 109.632H163.492C165.028 109.632 166.103 107.79 165.181 106.561L150.591 83.99Z" fill="#DAE1ED"/>
<path d="M120.948 84.4504L104.668 58.9617H20.9653L37.8595 84.4504H120.948Z" fill="#DAE1ED"/>
<path d="M79.7877 115.313H46.9208C46.1529 115.313 45.5386 114.699 45.5386 113.931C45.5386 113.164 46.1529 112.55 46.9208 112.55H79.7877C80.5556 112.55 81.17 113.164 81.17 113.931C81.0164 114.699 80.5556 115.313 79.7877 115.313Z" fill="#DAE1ED"/>
<path d="M79.7877 122.07H46.9208C46.1529 122.07 45.5386 121.455 45.5386 120.688C45.5386 119.92 46.1529 119.306 46.9208 119.306H79.7877C80.5556 119.306 81.17 119.92 81.17 120.688C81.0164 121.455 80.5556 122.07 79.7877 122.07Z" fill="#DAE1ED"/>
<path d="M62.1256 128.672H46.9208C46.1529 128.672 45.5386 128.058 45.5386 127.29C45.5386 126.522 46.1529 125.908 46.9208 125.908H62.1256C62.8935 125.908 63.5079 126.522 63.5079 127.29C63.3543 128.058 62.7399 128.672 62.1256 128.672Z" fill="#DAE1ED"/>
</g>
<defs>
<linearGradient id="paint0_linear_1657_14724" x1="69.5172" y1="95.0766" x2="107.785" y2="95.0766" gradientUnits="userSpaceOnUse">
<stop stop-color="#FF66A9"/>
<stop offset="1" stop-color="#F53689"/>
</linearGradient>
<linearGradient id="paint1_linear_1657_14724" x1="109.007" y1="91.6202" x2="114.651" y2="91.6202" gradientUnits="userSpaceOnUse">
<stop stop-color="#83A6FF"/>
<stop offset="1" stop-color="#5A78FF"/>
</linearGradient>
<linearGradient id="paint2_linear_1657_14724" x1="130.195" y1="101.23" x2="157.584" y2="150.542" gradientUnits="userSpaceOnUse">
<stop offset="0.00289017" stop-color="#606673" stop-opacity="0"/>
<stop offset="1" stop-color="#373C47"/>
</linearGradient>
<linearGradient id="paint3_linear_1657_14724" x1="130.501" y1="55.9961" x2="109.873" y2="81.8975" gradientUnits="userSpaceOnUse">
<stop offset="0.00289017" stop-color="#606673" stop-opacity="0"/>
<stop offset="1" stop-color="#373C47"/>
</linearGradient>
<linearGradient id="paint4_linear_1657_14724" x1="135.854" y1="114.236" x2="135.854" y2="87.1026" gradientUnits="userSpaceOnUse">
<stop offset="0.00289017" stop-color="#606673" stop-opacity="0"/>
<stop offset="1" stop-color="#373C47"/>
</linearGradient>
</defs>
</svg>
